<svg width="22" height="22" viewBox="0 0 22 22" fill="none" xmlns="http://www.w3.org/2000/svg">
<path d="M7.17367 17.3856C7.17367 17.4721 7.07422 17.5413 6.94882 17.5413C6.80613 17.5543 6.70667 17.4851 6.70667 17.3856C6.70667 17.2992 6.80613 17.23 6.93153 17.23C7.06125 17.217 7.17367 17.2862 7.17367 17.3856ZM5.82888 17.1911C5.79861 17.2775 5.88509 17.377 6.01482 17.4029C6.12724 17.4462 6.25697 17.4029 6.28291 17.3165C6.30886 17.23 6.2267 17.1305 6.09697 17.0916C5.98455 17.0613 5.85915 17.1046 5.82888 17.1911ZM7.74013 17.1175C7.61473 17.1478 7.52825 17.23 7.54122 17.3294C7.55419 17.4159 7.66662 17.4721 7.79634 17.4418C7.92174 17.4116 8.00822 17.3294 7.99525 17.2429C7.98228 17.1608 7.86553 17.1046 7.74013 17.1175ZM10.5854 0.547607C4.58787 0.547607 0 5.10088 0 11.0984C0 15.8938 3.01822 19.9974 7.32934 21.4416C7.88283 21.5411 8.07741 21.1995 8.07741 20.9184C8.07741 20.6503 8.06444 19.1715 8.06444 18.2634C8.06444 18.2634 5.03757 18.912 4.40193 16.9748C4.40193 16.9748 3.90898 15.7165 3.19983 15.3922C3.19983 15.3922 2.20961 14.7133 3.26902 14.7263C3.26902 14.7263 4.34572 14.8128 4.93812 15.8419C5.88509 17.511 7.47204 17.0311 8.09038 16.7457C8.18984 16.0538 8.4709 15.5738 8.78224 15.2884C6.36507 15.0204 3.92628 14.6701 3.92628 10.5103C3.92628 9.3212 4.25491 8.72447 4.94677 7.96343C4.83434 7.68237 4.46679 6.52351 5.05919 5.02737C5.96293 4.7463 8.04282 6.19488 8.04282 6.19488C8.90764 5.95273 9.83732 5.82733 10.7584 5.82733C11.6794 5.82733 12.6091 5.95273 13.4739 6.19488C13.4739 6.19488 15.5538 4.74198 16.4575 5.02737C17.0499 6.52783 16.6824 7.68237 16.5699 7.96343C17.2618 8.7288 17.6856 9.32552 17.6856 10.5103C17.6856 14.6831 15.1387 15.016 12.7215 15.2884C13.1193 15.6301 13.4566 16.2787 13.4566 17.2948C13.4566 18.752 13.4436 20.5552 13.4436 20.9098C13.4436 21.1908 13.6425 21.5324 14.1917 21.433C18.5158 19.9974 21.4475 15.8938 21.4475 11.0984C21.4475 5.10088 16.5829 0.547607 10.5854 0.547607ZM4.20302 15.4614C4.14681 15.5047 4.15978 15.6041 4.23329 15.6863C4.30248 15.7555 4.40193 15.7857 4.45814 15.7295C4.51436 15.6863 4.50138 15.5868 4.42787 15.5047C4.35869 15.4355 4.25923 15.4052 4.20302 15.4614ZM3.73602 15.1112C3.70575 15.1674 3.74899 15.2366 3.83547 15.2798C3.90466 15.323 3.99114 15.3101 4.02141 15.2495C4.05168 15.1933 4.00844 15.1241 3.92195 15.0809C3.83547 15.0549 3.76629 15.0679 3.73602 15.1112ZM5.13703 16.6505C5.06784 16.7068 5.09378 16.8365 5.19324 16.9186C5.29269 17.0181 5.41809 17.0311 5.47431 16.9619C5.53052 16.9057 5.50457 16.7759 5.41809 16.6938C5.32296 16.5943 5.19324 16.5814 5.13703 16.6505ZM4.64408 16.0149C4.57489 16.0581 4.57489 16.1706 4.64408 16.27C4.71326 16.3695 4.83001 16.4127 4.88623 16.3695C4.95541 16.3133 4.95541 16.2008 4.88623 16.1014C4.82569 16.0019 4.71326 15.9587 4.64408 16.0149Z" fill="#B1AEC4"/>
</svg>
