<svg width="22" height="22" viewBox="0 0 20 20" fill="none" xmlns="http://www.w3.org/2000/svg">
<path d="M9.69354 4.72083C6.94342 4.72083 4.72516 6.93909 4.72516 9.68922C4.72516 12.4393 6.94342 14.6576 9.69354 14.6576C12.4437 14.6576 14.6619 12.4393 14.6619 9.68922C14.6619 6.93909 12.4437 4.72083 9.69354 4.72083ZM9.69354 12.9193C7.91634 12.9193 6.46344 11.4707 6.46344 9.68922C6.46344 7.90769 7.91201 6.45912 9.69354 6.45912C11.4751 6.45912 12.9236 7.90769 12.9236 9.68922C12.9236 11.4707 11.4707 12.9193 9.69354 12.9193ZM16.024 4.5176C16.024 5.16189 15.5051 5.67646 14.8652 5.67646C14.2209 5.67646 13.7063 5.15757 13.7063 4.5176C13.7063 3.87763 14.2252 3.35874 14.8652 3.35874C15.5051 3.35874 16.024 3.87763 16.024 4.5176ZM19.3147 5.69375C19.2411 4.1414 18.8866 2.76634 17.7493 1.63343C16.6164 0.500514 15.2414 0.145938 13.689 0.0681045C12.0891 -0.0227015 7.29367 -0.0227015 5.69375 0.0681045C4.14573 0.141614 2.77066 0.49619 1.63343 1.6291C0.49619 2.76202 0.145938 4.13708 0.0681045 5.68943C-0.0227015 7.28934 -0.0227015 12.0848 0.0681045 13.6847C0.141614 15.237 0.49619 16.6121 1.63343 17.745C2.77066 18.8779 4.1414 19.2325 5.69375 19.3103C7.29367 19.4011 12.0891 19.4011 13.689 19.3103C15.2414 19.2368 16.6164 18.8822 17.7493 17.745C18.8822 16.6121 19.2368 15.237 19.3147 13.6847C19.4055 12.0848 19.4055 7.29367 19.3147 5.69375ZM17.2477 15.4013C16.9105 16.2489 16.2575 16.9018 15.4057 17.2434C14.1301 17.7493 11.1032 17.6326 9.69354 17.6326C8.28389 17.6326 5.2527 17.745 3.98141 17.2434C3.13389 16.9061 2.48095 16.2532 2.13935 15.4013C1.63343 14.1257 1.75018 11.0989 1.75018 9.68922C1.75018 8.27956 1.63775 5.24837 2.13935 3.97709C2.47663 3.12956 3.12956 2.47663 3.98141 2.13502C5.25702 1.6291 8.28389 1.74585 9.69354 1.74585C11.1032 1.74585 14.1344 1.63343 15.4057 2.13502C16.2532 2.4723 16.9061 3.12524 17.2477 3.97709C17.7537 5.2527 17.6369 8.27956 17.6369 9.68922C17.6369 11.0989 17.7537 14.1301 17.2477 15.4013Z" fill="#B1AEC4"/>
</svg>
