<svg width="21" height="21" viewBox="0 0 20 20" fill="none" xmlns="http://www.w3.org/2000/svg">
<path d="M4.3362 19.9999H0.319983V7.06656H4.3362V19.9999ZM2.32593 5.30233C1.04167 5.30233 0 4.23861 0 2.95435C9.19216e-09 2.33747 0.245053 1.74586 0.68125 1.30967C1.11745 0.873471 1.70906 0.628418 2.32593 0.628418C2.94281 0.628418 3.53442 0.873471 3.97061 1.30967C4.40681 1.74586 4.65186 2.33747 4.65186 2.95435C4.65186 4.23861 3.60976 5.30233 2.32593 5.30233ZM19.3676 19.9999H15.3601V13.7041C15.3601 12.2036 15.3298 10.2794 13.2719 10.2794C11.1838 10.2794 10.8639 11.9096 10.8639 13.5959V19.9999H6.85196V7.06656H10.7039V8.8308H10.7601C11.2963 7.81463 12.606 6.74226 14.5601 6.74226C18.6247 6.74226 19.372 9.41887 19.372 12.8954V19.9999H19.3676Z" fill="#B1AEC4"/>
</svg>
